<svg xmlns="http://www.w3.org/2000/svg" xmlns:xlink="http://www.w3.org/1999/xlink" xmlns:inkscape="http://www.inkscape.org/namespaces/inkscape" version="1.1" width="6743" height="4000" viewBox="0 0 6743 4000">
<defs>
<clipPath id="clip_0">
<path transform="matrix(1,0,0,-1,0,4000)" d="M0 4000H6743V0H0Z"/>
</clipPath>
</defs>
<g inkscape:groupmode="layer" inkscape:label="Capa 34">
<g inkscape:groupmode="layer" inkscape:label="Capa 35">
<g inkscape:groupmode="layer" inkscape:label="Capa 36">
<g inkscape:groupmode="layer" inkscape:label="Capa 37">
<g inkscape:groupmode="layer" inkscape:label="Capa 38">
<g inkscape:groupmode="layer" inkscape:label="Capa 22">
<g inkscape:groupmode="layer" inkscape:label="Capa 18">
<g inkscape:groupmode="layer" inkscape:label="Capa 25">
<g inkscape:groupmode="layer" inkscape:label="Capa 26">
<g inkscape:groupmode="layer" inkscape:label="Capa 27">
<g inkscape:groupmode="layer" inkscape:label="Capa 28">
<g inkscape:groupmode="layer" inkscape:label="Capa 29">
<g inkscape:groupmode="layer" inkscape:label="Capa 30">
<g inkscape:groupmode="layer" inkscape:label="Capa 31">
<g inkscape:groupmode="layer" inkscape:label="Capa 32">
<g inkscape:groupmode="layer" inkscape:label="Capa 33">
<g inkscape:groupmode="layer" inkscape:label="Capa 19">
<g inkscape:groupmode="layer" inkscape:label="Capa 4">
<g inkscape:groupmode="layer" inkscape:label="Capa 3">
<g inkscape:groupmode="layer" inkscape:label="Capa 16">
<g inkscape:groupmode="layer" inkscape:label="Capa 15">
<g inkscape:groupmode="layer" inkscape:label="Capa 17">
<g inkscape:groupmode="layer" inkscape:label="Capa 2">
<g inkscape:groupmode="layer" inkscape:label="Capa 20">
<g inkscape:groupmode="layer" inkscape:label="Capa 21">
<g inkscape:groupmode="layer" inkscape:label="Capa 23">
<g inkscape:groupmode="layer" inkscape:label="Capa 24">
<g clip-path="url(#clip_0)">
<path transform="matrix(1,0,0,-1,5115.0217,2025.365)" d="M0 0C0-9.227-2.204-17.565-6.613-25.017-11.021-32.469-16.991-38.39-24.524-42.782-32.055-47.173-40.458-49.368-49.737-49.368-59.564-49.368-68.199-47.107-75.639-42.582-83.079-38.057-88.909-32.048-93.135-24.551-97.359-17.055-99.473-8.961-99.473-.266-99.473 7.805-97.819 15.19-94.513 21.89-91.208 28.587-86.843 34.109-81.425 38.457L-73.709 27.679C-72.883 26.435-72.47 25.15-72.47 23.819-72.47 22.399-72.973 21.025-73.985 19.694-78.76 14.016-81.149 7.363-81.149-.266-81.149-8.606-78.164-15.569-72.194-21.157-66.222-26.747-58.738-29.541-49.737-29.541-40.551-29.541-32.997-26.636-27.073-20.826-21.148-15.016-18.186-7.984-18.186 .266-18.186 7.096-20.067 12.796-23.835 17.365-27.6 21.933-32.422 24.838-38.302 26.082V9.581C-38.302 6.83-39.77 4.745-42.709 3.327L-55.661-1.464V40.852C-55.661 42.449-55.062 43.823-53.87 44.977-52.675 46.129-51.252 46.707-49.599 46.707-39.955 46.707-31.412 44.644-23.972 40.519-16.532 36.394-10.678 30.826-6.406 23.819-2.135 16.811 0 8.87 0 0" fill="#162b4e"/>
<path transform="matrix(1,0,0,-1,5113.5065,1890.9673)" d="M0 0V-17.432C0-19.916-1.24-21.912-3.72-23.42L-33.204-37.924C-35.684-39.344-36.924-41.34-36.924-43.912V-60.812H0V-80.107H-53.319V-36.327C-53.319-31.892-54.512-28.389-56.901-25.815-59.289-23.243-62.412-21.956-66.27-21.956-70.128-21.956-73.249-23.243-75.639-25.815-78.026-28.389-79.22-31.892-79.22-36.327V-73.454C-79.22-75.316-79.886-76.892-81.219-78.178-82.548-79.465-84.18-80.107-86.109-80.107H-96.442V-34.598C-96.442-25.282-93.709-17.588-88.245-11.51-82.779-5.435-75.546-2.395-66.545-2.395-60.208-2.395-54.719-4.104-50.081-7.518-45.442-10.934-41.974-15.302-39.679-20.625Z" fill="#162b4e"/>
<path transform="matrix(1,0,0,-1,5087.674,1815.852)" d="M0 0C-6.015 5.543-13.479 8.317-22.389 8.317-31.297 8.317-38.76 5.543-44.777 0-50.792-5.545-53.802-12.621-53.802-21.225-53.802-29.564-50.816-36.55-44.846-42.183-38.874-47.817-31.39-50.633-22.389-50.633-13.479-50.633-6.015-47.817 0-42.183 6.016-36.55 9.024-29.564 9.024-21.225 9.024-12.621 6.016-5.545 0 0M21.01-45.509C16.787-53.007 10.931-59.039 3.444-63.607-4.041-68.177-12.652-70.46-22.389-70.46-31.481-70.46-39.793-68.31-47.326-64.006-54.856-59.704-60.873-53.826-65.375-46.375-69.874-38.923-72.125-30.539-72.125-21.225-72.125-12.354-69.99-4.171-65.719 3.327-61.447 10.822-55.593 16.833-48.153 21.358-40.713 25.882-32.124 28.144-22.389 28.144-13.296 28.144-4.981 25.992 2.549 21.69 10.081 17.386 16.098 11.51 20.596 4.058 25.099-3.393 27.348-11.822 27.348-21.225 27.348-29.92 25.236-38.014 21.01-45.509" fill="#162b4e"/>
<path transform="matrix(1,0,0,-1,5103.3117,1767.217)" d="M0 0C-7.807-7.365-18.277-11.045-31.414-11.045H-86.109V8.25H-31.414C-23.974 8.25-18.001 10.246-13.503 14.238-9.001 18.231-6.751 23.597-6.751 30.34-6.751 37.17-9.046 42.515-13.641 46.374-18.232 50.233-24.157 52.163-31.414 52.163H-86.109V64.804C-86.109 66.668-85.442 68.241-84.112 69.528-82.78 70.813-81.149 71.458-79.221 71.458H-31.414C-17.911 71.458-7.348 67.666 .274 60.08 7.9 52.495 11.71 42.536 11.71 30.207 11.71 17.432 7.808 7.363 0 0" fill="#162b4e"/>
<path transform="matrix(1,0,0,-1,5113.5065,1662.626)" d="M0 0V-19.295H-52.906V25.682C-52.996 29.585-54.167 32.802-56.418 35.33-58.669 37.858-61.861 39.122-65.995 39.122-70.128 39.122-73.342 37.858-75.639 35.33-77.933 32.802-79.128 29.585-79.22 25.682V-12.642C-79.22-14.504-79.886-16.08-81.219-17.365-82.548-18.653-84.18-19.295-86.109-19.295H-96.442V27.412C-96.442 36.461-93.64 43.934-88.039 49.834-82.436 55.733-75.133 58.683-66.133 58.683-57.497 58.683-50.378 55.756-44.777 49.9-39.174 44.045-36.373 36.548-36.373 27.412V0Z" fill="#162b4e"/>
<path transform="matrix(1,0,0,-1,4066.1929,2322.4937)" d="M0 0C0 14.189-9.668 22.922-25.416 22.922H-49.429V-22.922H-25.572C-9.668-22.922 0-14.034 0 0M17.465 0C17.465-23.702 .624-38.827-25.728-38.827H-49.429V-74.379H-66.271V38.67H-25.572C.936 38.67 17.465 23.857 17.465 0" fill="#233e66"/>
<path transform="matrix(1,0,0,-1,4119.673,2341.8297)" d="M0 0H25.261C41.009 0 50.677 7.797 50.677 21.051 50.677 34.461 41.165 42.258 25.417 42.258H0ZM50.054-55.043 24.168-15.904H0V-55.043H-16.841V58.006H25.105C51.613 58.006 68.142 43.816 68.142 21.051 68.142 3.898 58.005-8.576 41.478-13.566L70.948-55.043Z" fill="#233e66"/>
<path transform="matrix(1,0,0,-1,4305.693,2340.27)" d="M0 0C.156 25.105-16.996 42.101-41.322 42.101-65.647 42.101-82.799 24.637-82.799 0-82.799-24.949-65.958-42.101-41.322-42.101-17.152-42.101 0-24.637 0 0M-100.107 0C-100.107 33.369-75.158 58.006-41.322 58.006-7.172 58.006 17.464 34.149 17.464 0 17.464-33.525-7.328-58.162-41.322-58.162-75.626-58.162-100.107-33.992-100.107 0" fill="#233e66"/>
<path transform="matrix(1,0,0,-1,4413.2795,2322.4937)" d="M0 0C0 14.189-9.667 22.922-25.417 22.922H-49.429V-22.922H-25.572C-9.667-22.922 0-14.034 0 0M17.464 0C17.464-23.702 .625-38.827-25.728-38.827H-49.429V-74.379H-66.271V38.67H-25.572C.936 38.67 17.464 23.857 17.464 0" fill="#233e66"/>
<path transform="matrix(1,0,0,-1,0,4000)" d="M4449.918 1716.177H4467.227V1603.128H4449.918Z" fill="#233e66"/>
<path transform="matrix(1,0,0,-1,4574.97,2381.436)" d="M0 0V-15.437H-76.25V97.613H-.779V82.332H-59.409V48.963H-4.054V34.149H-59.409V0Z" fill="#233e66"/>
<path transform="matrix(1,0,0,-1,4637.183,2299.7288)" d="M0 0H-22.921V-81.083H-.312C25.104-81.083 42.881-64.554 42.881-40.541 43.037-16.372 25.417 0 0 0M60.19-40.541C60.19-73.443 34.617-97.144-.312-97.144H-39.762V15.905H0C34.928 15.905 60.19-7.796 60.19-40.541" fill="#233e66"/>
<path transform="matrix(1,0,0,-1,4782.037,2354.772)" d="M0 0-20.271 50.053-21.674 54.732-22.922 50.053-43.192 0ZM6.081-15.281H-49.274L-60.188-42.101H-78.745L-31.498 70.949H-11.539L35.708-42.101H16.997Z" fill="#233e66"/>
<path transform="matrix(1,0,0,-1,4873.2497,2299.7288)" d="M0 0H-22.921V-81.083H-.312C25.104-81.083 42.881-64.554 42.881-40.541 43.037-16.372 25.417 0 0 0M60.19-40.541C60.19-73.443 34.617-97.144-.312-97.144H-39.762V15.905H0C34.928 15.905 60.19-7.796 60.19-40.541" fill="#233e66"/>
<path transform="matrix(1,0,0,-1,5033.538,2381.436)" d="M0 0V-15.437H-76.25V97.613H-.779V82.332H-59.409V48.963H-4.054V34.149H-59.409V0Z" fill="#233e66"/>
<path transform="matrix(1,0,0,-1,5050.6867,2370.2088)" d="M0 0 15.75 4.678C15.75 4.678 19.18-13.41 38.827-13.41 52.081-13.41 60.501-7.172 60.501 2.963 60.501 12.318 54.731 17.776 42.569 21.207L28.692 25.105C10.76 30.25 2.028 40.074 2.028 57.07 2.028 75.938 16.061 87.945 38.047 87.945 68.61 87.945 74.69 64.088 74.69 64.088L59.253 58.785C59.253 58.785 56.135 73.287 38.358 73.287 26.196 73.287 18.712 67.362 18.712 58.006 18.712 48.65 24.637 42.881 37.112 39.295L51.457 35.24C69.077 30.094 77.809 20.271 77.809 3.898 77.809-15.905 62.684-28.223 38.983-28.223 6.86-28.223 0 0 0 0" fill="#233e66"/>
<path transform="matrix(1,0,0,-1,2859.202,2229.8453)" d="M0 0C-60.275 0-114.737 13.908-163.414 41.722-212.09 69.537-250.771 107.199-279.454 154.721-308.139 202.229-322.482 255.252-322.482 313.788-322.482 375.788-307.705 430.263-278.151 477.201-248.598 524.139-209.347 560.932-160.372 587.592-111.41 614.239-58.538 627.577-1.739 627.577 50.984 627.577 99.227 617.146 142.986 596.284 186.731 575.423 222.805 547.893 251.203 513.708L180.797 465.032C172.675 459.817 164.281 457.209 155.59 457.209 146.313 457.209 137.335 460.388 128.643 466.77 91.552 496.895 48.092 511.97-1.739 511.97-56.215 511.97-101.699 493.133-138.207 455.471-174.715 417.795-192.968 370.572-192.968 313.788-192.968 255.835-173.994 208.178-136.034 170.801-98.086 133.425-52.155 114.737 1.737 114.737 46.354 114.737 83.58 126.607 113.432 150.375 143.271 174.129 162.245 204.551 170.366 241.643H62.583C44.615 241.643 30.992 250.906 21.729 269.458L-9.562 351.165H266.85C277.28 351.165 286.257 347.389 293.795 339.865 301.319 332.327 305.095 323.349 305.095 312.919 305.095 252.073 291.623 198.182 264.677 151.244 237.731 104.306 201.359 67.365 155.59 40.419 109.805 13.473 57.938 0 0 0" fill="#162b4e"/>
<path transform="matrix(1,0,0,-1,5220.306,2156.2047)" d="M0 0C-5.911-.548-14.121-4.283-18.658-8.101-33.373-20.484-35.338-43.048-22.954-57.815-10.6-72.545 12.015-74.478 26.76-62.111 39.819-51.159 42.942-32.094 34.493-17.308 27.629-5.296 13.685 1.269 0 0M6.997 9.083C21.595 7.852 35.455-.496 42.594-13.38 54.064-34.079 47.33-60.75 27.005-72.913-1.681-90.08-37.571-70.866-40.139-38.052V-32.16C-38.327-9.977-21.08 7.265 1.105 9.083Z" fill="#162b4e"/>
<path transform="matrix(1,0,0,-1,5217.1149,2175.8443)" d="M0 0V-11.784C5.452-11.822 12.344-12.93 11.907-5.278 11.537 1.186 4.57-.064 0 0M-12.029 8.593C-3.673 7.974 12.282 10.381 19.149 5.892 26.294 1.221 25.306-13.57 15.221-15.712 15.18-15.835 15.139-15.957 15.098-16.08 22.049-17.742 25.863-31.159 29.46-37.561H16.939C12.18-30.322 11.306-17.724-.123-20.254V-37.439H-12.152C-12.111-22.095-12.07-6.751-12.029 8.593" fill="#162b4e"/>
<path transform="matrix(1,0,0,-1,1798.7448,2228.2752)" d="M0 0C-63.751 0-119.952 14.342-168.629 43.026-217.303 71.711-255.414 109.806-282.93 157.328-310.46 204.836-324.219 256.705-324.219 312.919-324.219 372.596-309.741 426.053-280.757 473.29-251.787 520.513-212.673 557.889-163.412 585.419-114.167 612.935-59.691 626.707 0 626.707 50.986 626.707 98.793 616.276 143.422 595.415 188.038 574.554 224.259 547.309 252.074 513.708L181.667 465.032C173.546 459.817 165.153 457.209 156.46 457.209 147.767 457.209 139.076 460.103 130.384 465.902 91.554 496.025 48.092 511.101 0 511.101-55.058 511.101-101.263 492.263-138.641 454.602-176.016 416.927-194.705 369.703-194.705 312.919-194.705 257.859-175.88 211.356-138.205 173.409-100.544 135.449-53.321 116.475 3.478 116.475 50.416 116.475 92.709 130.668 130.384 159.067 139.076 164.853 147.767 167.759 156.46 167.759 165.153 167.759 173.546 165.152 181.667 159.936L249.466 112.13C219.914 77.931 182.972 50.7 138.641 30.423 94.311 10.131 48.092 0 0 0" fill="#162b4e"/>
<path transform="matrix(1,0,0,-1,2222.0596,1942.302)" d="M0 0-219.914 332.041H-113C-88.661 332.041-68.968 321.312-53.892 299.881L69.536 107.783Z" fill="#ff0000"/>
<path transform="matrix(1,0,0,-1,0,4000)" d="M5110.272 1846.306H5062.535V1894.043H5110.272Z" fill="#ff0000"/>
<path transform="matrix(1,0,0,-1,0,4000)" d="M5110.272 1777.467H5062.535V1825.2041H5110.272Z" fill="#ff0000"/>
<path transform="matrix(1,0,0,-1,0,4000)" d="M5046.623 1777.467H4998.886V1825.2041H5046.623Z" fill="#ff0000"/>
<path transform="matrix(1,0,0,-1,4679.3176,2228.2752)" d="M0 0C-50.998 0-99.826 9.561-146.464 28.684-193.117 47.807-234.119 73.299-269.458 105.176L-214.697 159.936C-204.852 168.629-194.705 172.975-184.275 172.975-175.583 172.975-166.89 170.367-158.199 165.152-104.89 126.322-49.261 106.914 8.692 106.914 45.769 106.914 75.757 113.718 98.657 127.34 121.54 140.949 132.99 159.638 132.99 183.405 132.99 204.836 125.018 221.352 109.086 232.951 93.143 244.535 67.799 252.943 33.03 258.158L-87.792 279.019C-141.683 288.282-181.667 307.12-207.743 335.518-233.819 363.904-246.858 399.257-246.858 441.563-246.858 500.087-224.844 545.435-180.797 577.596-136.767 609.757-78.813 625.838-6.954 625.838 35.339 625.838 78.799 618.585 123.43 604.108 168.044 589.616 208.313 568.469 244.251 540.654L186.012 482.417C177.892 474.294 167.759 470.247 155.59 470.247 148.052 470.247 140.514 472.271 132.99 476.333 84.313 505.302 34.769 519.793-15.646 519.793-48.106 519.793-74.753 513.844-95.615 501.974-116.476 490.091-126.906 473.141-126.906 451.125-126.906 432.002-119.952 417.225-106.044 406.794-92.137 396.364-70.123 389.112-39.984 385.064L74.753 365.941C195.859 346.819 256.42 289.735 256.42 194.705 256.42 134.43 232.801 86.922 185.578 52.153 138.341 17.385 76.492 0 0 0" fill="#162b4e"/>
<path transform="matrix(1,0,0,-1,3926.5775,2154.3917)" d="M0 0C-48.105 49.247-72.145 115.307-72.145 198.182V508.389C-72.145 527.649-56.531 543.262-37.271 543.262H53.892V198.182C53.892 151.244 66.93 113.569 93.006 85.184 119.084 56.784 154.138 42.591 198.183 42.591 242.797 42.591 277.717 57.069 302.924 86.052 328.131 115.022 340.735 152.399 340.735 198.182V543.262H423.309C435.48 543.262 445.761 539.051 454.167 530.658 462.56 522.251 466.771 511.97 466.771 499.801V198.182C466.771 112.998 441.998 46.353 392.454-1.739 342.908-49.844 277.851-73.884 197.313-73.884 113.868-73.884 48.092-49.26 0 0" fill="#162b4e"/>
<path transform="matrix(1,0,0,-1,3757.0953,2143.0914)" d="M0 0-118.215 164.282V500.349C-118.215 518.288-103.672 532.831-85.733 532.831H0ZM0-75.623H-114.737C-136.183-75.623-154.721-66.645-170.367-48.677L-421.572 331.172V-75.623H-540.655V532.831H-454.603C-433.741 532.831-415.486 523.841-399.841 505.885-267.149 311.751-133.859 117.915 0-75.623" fill="#162b4e"/>
<path transform="matrix(1,0,0,-1,2374.172,2218.7139)" d="M0 0H-126.036V236.428L93.876 576.292C108.938 597.724 128.645 608.453 152.982 608.453H252.074L0 228.605Z" fill="#162b4e"/>
</g>
</g>
</g>
</g>
</g>
</g>
</g>
</g>
</g>
</g>
</g>
</g>
</g>
</g>
</g>
</g>
</g>
</g>
</g>
</g>
</g>
</g>
</g>
</g>
</g>
</g>
</g>
</g>
</svg>
